<svg width="28" height="28" viewBox="0 0 28 28" fill="none" xmlns="http://www.w3.org/2000/svg">
<path fill-rule="evenodd" clip-rule="evenodd" d="M0 14C0 6.19995 6.2002 0 14 0C21.7998 0 28 6.19995 28 14C28 21.8 21.7998 28 14 28C6.2002 28 0 21.8 0 14ZM2 14C2 20.6001 7.40039 26 14 26C20.5996 26 26 20.6001 26 14C26 7.3999 20.5996 2 14 2C7.40039 2 2 7.3999 2 14ZM14 15.6001L19.4004 21L21 19.3999L15.5996 14L21 8.6001L19.4004 7L14 12.3999L8.59961 7L7 8.6001L12.4004 14L7 19.3999L8.59961 21L14 15.6001Z" fill="#C5E6F9"/>
</svg>
